<svg width="53" height="61" viewBox="0 0 53 61" fill="none" xmlns="http://www.w3.org/2000/svg">
<ellipse cx="26.3189" cy="33.2543" rx="19.7363" ry="19.9662" fill="#2A2F43"/>
<g filter="url(#filter0_i_581_149)">
<path d="M20.5684 40.3614L15.3188 35.1834C14.864 34.7133 14.5883 34.0956 14.5402 33.4396C14.4922 32.7836 14.675 32.1315 15.0563 31.5987C15.2687 31.2787 15.5508 31.0122 15.8809 30.8197C16.211 30.6272 16.5803 30.5138 16.9604 30.4881C17.3406 30.4625 17.7215 30.5253 18.074 30.6718C18.4264 30.8183 18.7409 31.0445 18.9935 31.3331L22.4057 34.7851L33.6924 23.367C34.1979 22.9835 34.8231 22.7973 35.4533 22.8426C36.0836 22.8879 36.6765 23.1617 37.1233 23.6137C37.5701 24.0657 37.8407 24.6655 37.8855 25.3031C37.9303 25.9407 37.7462 26.5732 37.3671 27.0845L24.2431 40.3614C24.0095 40.619 23.7256 40.8246 23.4093 40.9653C23.093 41.106 22.7512 41.1786 22.4057 41.1786C22.0602 41.1786 21.7185 41.106 21.4022 40.9653C21.0859 40.8246 20.802 40.619 20.5684 40.3614Z" fill="#678BFF"/>
<path d="M26.3429 13.2761C30.2364 13.2761 34.0425 14.4441 37.2799 16.6324C40.5172 18.8207 43.0404 21.9311 44.5304 25.5701C46.0204 29.2092 46.4103 33.2135 45.6507 37.0767C44.8911 40.9399 43.0162 44.4885 40.263 47.2737C37.5099 50.0589 34.0022 51.9556 30.1835 52.7241C26.3647 53.4925 22.4065 53.0981 18.8094 51.5908C15.2122 50.0834 12.1377 47.5308 9.97455 44.2558C7.81142 40.9807 6.65685 37.1303 6.65685 33.1914C6.65685 27.9095 8.73091 22.844 12.4228 19.1091C16.1146 15.3743 21.1218 13.2761 26.3429 13.2761ZM26.3429 7.96533C21.4111 7.96533 16.59 9.44481 12.4894 12.2167C8.38874 14.9886 5.19267 18.9283 3.30535 23.5378C1.41803 28.1473 0.924222 33.2194 1.88637 38.1128C2.84852 43.0062 5.22341 47.501 8.71072 51.0289C12.198 54.5569 16.6411 56.9594 21.4782 57.9328C26.3152 58.9061 31.329 58.4066 35.8854 56.4973C40.4417 54.588 44.3362 51.3547 47.0761 47.2063C49.8161 43.0579 51.2785 38.1807 51.2785 33.1914C51.2785 26.501 48.6514 20.0847 43.9751 15.3539C39.2987 10.6231 32.9562 7.96533 26.3429 7.96533Z" fill="white"/>
<path d="M2.72002 13.2774C2.3143 13.2677 1.9157 13.1674 1.55271 12.9838C1.18972 12.8002 0.871294 12.5378 0.620176 12.2152C0.41336 11.9363 0.262882 11.6188 0.177335 11.281C0.0917886 10.9432 0.0728485 10.5917 0.121596 10.2465C0.220045 9.5493 0.588224 8.92024 1.14514 8.49769L11.6444 0.531564C11.9201 0.322338 12.2339 0.170108 12.5678 0.0835654C12.9017 -0.00297761 13.2492 -0.0221387 13.5904 0.0271762C13.9317 0.0764911 14.26 0.193316 14.5566 0.370981C14.8532 0.548646 15.1123 0.783672 15.3191 1.06264C15.5259 1.34161 15.6764 1.65905 15.7619 1.99685C15.8475 2.33465 15.8664 2.68619 15.8177 3.03139C15.7689 3.3766 15.6534 3.70871 15.4778 4.00876C15.3022 4.30882 15.0699 4.57094 14.7941 4.78017L4.2949 12.7463C3.84531 13.1001 3.28953 13.2875 2.72002 13.2774Z" fill="white"/>
<path d="M49.9658 13.2769C49.3963 13.287 48.8405 13.0996 48.3909 12.7458L37.8917 4.77969C37.616 4.57046 37.3836 4.30834 37.208 4.00828C37.0324 3.70823 36.9169 3.37612 36.8682 3.03091C36.8194 2.68571 36.8384 2.33417 36.9239 1.99637C37.0095 1.65857 37.1599 1.34113 37.3668 1.06216C37.7844 0.498762 38.4063 0.126295 39.0954 0.0266987C39.7845 -0.0728972 40.4846 0.108536 41.0415 0.531086L51.5407 8.49722C52.0976 8.91977 52.4658 9.54882 52.5643 10.246C52.6627 10.9432 52.4834 11.6513 52.0657 12.2147C51.8146 12.5373 51.4961 12.7997 51.1331 12.9833C50.7701 13.1669 50.3716 13.2672 49.9658 13.2769Z" fill="white"/>
</g>
<g filter="url(#filter1_i_581_149)">
<path d="M40.2283 56.0796C39.7945 56.4215 39.7111 57.0621 40.1216 57.4298C40.4017 57.6807 40.7075 57.902 41.0344 58.0897C41.6501 58.4431 42.3285 58.6704 43.0309 58.7586C43.7334 58.8468 44.4462 58.7942 45.1285 58.6037C45.8109 58.4132 46.4495 58.0886 47.0079 57.6485C47.5662 57.2084 48.0334 56.6613 48.3828 56.0385C48.7322 55.4157 48.9569 54.7293 49.044 54.0187C49.1312 53.308 49.0792 52.587 48.8909 51.8967C48.7909 51.5301 48.6536 51.176 48.4816 50.8399C48.2295 50.3473 47.5951 50.2726 47.1614 50.6145L43.6948 53.3471L40.2283 56.0796Z" fill="white"/>
<path d="M12.0315 56.0796C12.4652 56.4215 12.5487 57.0621 12.1381 57.4298C11.8581 57.6807 11.5523 57.902 11.2253 58.0897C10.6097 58.4431 9.93129 58.6704 9.22882 58.7586C8.52635 58.8468 7.81359 58.7942 7.13123 58.6037C6.44887 58.4132 5.81027 58.0886 5.2519 57.6485C4.69354 57.2084 4.22633 56.6613 3.87696 56.0385C3.52759 55.4157 3.3029 54.7293 3.21572 54.0187C3.12854 53.308 3.18057 52.587 3.36885 51.8967C3.46883 51.5301 3.60618 51.176 3.77818 50.8399C4.03029 50.3473 4.66465 50.2726 5.09838 50.6145L8.56494 53.3471L12.0315 56.0796Z" fill="white"/>
</g>
<defs>
<filter id="filter0_i_581_149" x="0.0952148" y="0" width="53.4956" height="59.4175" filterUnits="userSpaceOnUse" color-interpolation-filters="sRGB">
<feFlood flood-opacity="0" result="BackgroundImageFix"/>
<feBlend mode="normal" in="SourceGraphic" in2="BackgroundImageFix" result="shape"/>
<feColorMatrix in="SourceAlpha" type="matrix" values="0 0 0 0 0 0 0 0 0 0 0 0 0 0 0 0 0 0 127 0" result="hardAlpha"/>
<feOffset dx="1" dy="1"/>
<feGaussianBlur stdDeviation="1"/>
<feComposite in2="hardAlpha" operator="arithmetic" k2="-1" k3="1"/>
<feColorMatrix type="matrix" values="0 0 0 0 0 0 0 0 0 0 0 0 0 0 0 0 0 0 0.4 0"/>
<feBlend mode="normal" in2="shape" result="effect1_innerShadow_581_149"/>
</filter>
<filter id="filter1_i_581_149" x="3.1748" y="50.4043" width="46.9102" height="9.396" filterUnits="userSpaceOnUse" color-interpolation-filters="sRGB">
<feFlood flood-opacity="0" result="BackgroundImageFix"/>
<feBlend mode="normal" in="SourceGraphic" in2="BackgroundImageFix" result="shape"/>
<feColorMatrix in="SourceAlpha" type="matrix" values="0 0 0 0 0 0 0 0 0 0 0 0 0 0 0 0 0 0 127 0" result="hardAlpha"/>
<feOffset dx="1" dy="1"/>
<feGaussianBlur stdDeviation="1"/>
<feComposite in2="hardAlpha" operator="arithmetic" k2="-1" k3="1"/>
<feColorMatrix type="matrix" values="0 0 0 0 0 0 0 0 0 0 0 0 0 0 0 0 0 0 0.4 0"/>
<feBlend mode="normal" in2="shape" result="effect1_innerShadow_581_149"/>
</filter>
</defs>
</svg>
